{
  "accessors": [
    {
      "bufferView": 2,
      "componentType": 5126,
      "count": 1492,
      "max": [
        1405.358154296875,
        334.8681945800781,
        4632.560546875
      ],
      "min": [
        -2382.6083984375,
        -298.37548828125,
        -835.0648803710938
      ],
      "type": "VEC3"
    },
    {
      "bufferView": 2,
      "byteOffset": 17904,
      "componentType": 5126,
      "count": 1492,
      "max": [
        0.9990501403808594,
        1.0,
        0.9741122126579285
      ],
      "min": [
        -0.9990501403808594,
        -1.0,
        -0.9576003551483154
      ],
      "type": "VEC3"
    },
    {
      "bufferView": 1,
      "componentType": 5126,
      "count": 1492,
      "max": [
        1.5039000511169434,
        0.5088000297546387
      ],
      "min": [
        -0.13650000095367432,
        -1.0214999914169312
      ],
      "type": "VEC2"
    },
    {
      "bufferView": 0,
      "componentType": 5125,
      "count": 3747,
      "type": "SCALAR"
    },
    {
      "bufferView": 2,
      "byteOffset": 35808,
      "componentType": 5126,
      "count": 2951,
      "max": [
        450.506591796875,
        714.8555908203125,
        4678.78076171875
      ],
      "min": [
        -450.50689697265625,
        -389.409912109375,
        3456.37548828125
      ],
      "type": "VEC3"
    },
    {
      "bufferView": 2,
      "byteOffset": 71220,
      "componentType": 5126,
      "count": 2951,
      "max": [
        1.0,
        1.0,
        0.9748435616493225
      ],
      "min": [
        -1.0,
        -0.9986209869384766,
        -0.9986156225204468
      ],
      "type": "VEC3"
    },
    {
      "bufferView": 1,
      "byteOffset": 11936,
      "componentType": 5126,
      "count": 2951,
      "max": [
        1.1835999488830566,
        0.9775000214576721
      ],
      "min": [
        -0.13650000095367432,
        -1.0
      ],
      "type": "VEC2"
    },
    {
      "bufferView": 0,
      "byteOffset": 14988,
      "componentType": 5125,
      "count": 6732,
      "type": "SCALAR"
    },
    {
      "bufferView": 2,
      "byteOffset": 106632,
      "componentType": 5126,
      "count": 1876,
      "max": [
        299.5757141113281,
        398.7419128417969,
        4622.3671875
      ],
      "min": [
        -299.5757141113281,
        -194.8271942138672,
        4156.9169921875
      ],
      "type": "VEC3"
    },
    {
      "bufferView": 2,
      "byteOffset": 129144,
      "componentType": 5126,
      "count": 1876,
      "max": [
        0.9999061822891235,
        0.9990549087524414,
        0.9996636509895325
      ],
      "min": [
        -0.9999061822891235,
        -0.9987457394599915,
        -0.9934260249137878
      ],
      "type": "VEC3"
    },
    {
      "bufferView": 1,
      "byteOffset": 35544,
      "componentType": 5126,
      "count": 1876,
      "max": [
        0.24570000171661377,
        -0.7710000276565552
      ],
      "min": [
        0.23569999635219574,
        -0.7807999849319458
      ],
      "type": "VEC2"
    },
    {
      "bufferView": 0,
      "byteOffset": 41916,
      "componentType": 5125,
      "count": 9672,
      "type": "SCALAR"
    },
    {
      "bufferView": 2,
      "byteOffset": 151656,
      "componentType": 5126,
      "count": 3500,
      "max": [
        -1957.0555419921875,
        428.5343017578125,
        514.748779296875
      ],
      "min": [
        -2723.17724609375,
        -391.1174011230469,
        100.65589904785156
      ],
      "type": "VEC3"
    },
    {
      "bufferView": 2,
      "byteOffset": 193656,
      "componentType": 5126,
      "count": 3500,
      "max": [
        1.0,
        0.966042160987854,
        0.9962255358695984
      ],
      "min": [
        -1.0,
        -0.9994447231292725,
        -0.9994648098945618
      ],
      "type": "VEC3"
    },
    {
      "bufferView": 1,
      "byteOffset": 50552,
      "componentType": 5126,
      "count": 3500,
      "max": [
        1.3652000427246094,
        0.9775000214576721
      ],
      "min": [
        -0.08150000125169754,
        -1.0
      ],
      "type": "VEC2"
    },
    {
      "bufferView": 0,
      "byteOffset": 80604,
      "componentType": 5125,
      "count": 10080,
      "type": "SCALAR"
    },
    {
      "bufferView": 2,
      "byteOffset": 235656,
      "componentType": 5126,
      "count": 3545,
      "max": [
        368.9836120605469,
        232.93690490722656,
        4531.013671875
      ],
      "min": [
        -368.9836120605469,
        -523.6766967773438,
        3685.1572265625
      ],
      "type": "VEC3"
    },
    {
      "bufferView": 2,
      "byteOffset": 278196,
      "componentType": 5126,
      "count": 3545,
      "max": [
        0.9996722340583801,
        1.0,
        0.9999194145202637
      ],
      "min": [
        -0.9996722340583801,
        -0.999984860420227,
        -0.9997071623802185
      ],
      "type": "VEC3"
    },
    {
      "bufferView": 1,
      "byteOffset": 78552,
      "componentType": 5126,
      "count": 3545,
      "max": [
        0.47999998927116394,
        -0.059300001710653305
      ],
      "min": [
        -0.004399999976158142,
        -0.9750999808311462
      ],
      "type": "VEC2"
    },
    {
      "bufferView": 0,
      "byteOffset": 120924,
      "componentType": 5125,
      "count": 16428,
      "type": "SCALAR"
    },
    {
      "bufferView": 2,
      "byteOffset": 320736,
      "componentType": 5126,
      "count": 13035,
      "max": [
        1743.30419921875,
        1209.4405517578125,
        5210.080078125
      ],
      "min": [
        -1743.304443359375,
        -558.9036254882813,
        7.342899799346924
      ],
      "type": "VEC3"
    },
    {
      "bufferView": 2,
      "byteOffset": 477156,
      "componentType": 5126,
      "count": 13035,
      "max": [
        0.9999356269836426,
        0.9999898672103882,
        0.9994590878486633
      ],
      "min": [
        -0.9999356269836426,
        -0.9999923706054688,
        -0.9998596906661987
      ],
      "type": "VEC3"
    },
    {
      "bufferView": 1,
      "byteOffset": 106912,
      "componentType": 5126,
      "count": 13035,
      "max": [
        1.4687999486923218,
        0.006899999920278788
      ],
      "min": [
        0.007000000216066837,
        -0.9824000000953674
      ],
      "type": "VEC2"
    },
    {
      "bufferView": 0,
      "byteOffset": 186636,
      "componentType": 5125,
      "count": 47052,
      "type": "SCALAR"
    }
  ],
  "asset": {
    "extras": {
      "author": "serienreviewer (https://sketchfab.com/serienreviewer)",
      "license": "CC-BY-4.0 (http://creativecommons.org/licenses/by/4.0/)",
      "source": "https://sketchfab.com/3d-models/perfect-susanoo-41e8fe2cab25423c966cc2ab2d909314",
      "title": "Perfect Susanoo"
    },
    "generator": "Sketchfab-12.68.0",
    "version": "2.0"
  },
  "bufferViews": [
    {
      "buffer": 0,
      "byteLength": 374844,
      "name": "floatBufferViews",
      "target": 34963
    },
    {
      "buffer": 0,
      "byteLength": 211192,
      "byteOffset": 374844,
      "byteStride": 8,
      "name": "floatBufferViews",
      "target": 34962
    },
    {
      "buffer": 0,
      "byteLength": 633576,
      "byteOffset": 586036,
      "byteStride": 12,
      "name": "floatBufferViews",
      "target": 34962
    }
  ],
  "buffers": [
    {
      "byteLength": 1219612,
      "uri": "scene.bin"
    }
  ],
  "materials": [
    {
      "doubleSided": true,
      "name": "Scene_-_Root",
      "pbrMetallicRoughness": {
        "baseColorFactor": [
          0.0206846368,
          0.1528789179,
          0.8242488546,
          1.0
        ],
        "metallicFactor": 0.0,
        "roughnessFactor": 0.6
      }
    }
  ],
  "meshes": [
    {
      "name": "Object_0",
      "primitives": [
        {
          "attributes": {
            "NORMAL": 1,
            "POSITION": 0,
            "TEXCOORD_0": 2
          },
          "indices": 3,
          "material": 0,
          "mode": 4
        }
      ]
    },
    {
      "name": "Object_1",
      "primitives": [
        {
          "attributes": {
            "NORMAL": 5,
            "POSITION": 4,
            "TEXCOORD_0": 6
          },
          "indices": 7,
          "material": 0,
          "mode": 4
        }
      ]
    },
    {
      "name": "Object_2",
      "primitives": [
        {
          "attributes": {
            "NORMAL": 9,
            "POSITION": 8,
            "TEXCOORD_0": 10
          },
          "indices": 11,
          "material": 0,
          "mode": 4
        }
      ]
    },
    {
      "name": "Object_3",
      "primitives": [
        {
          "attributes": {
            "NORMAL": 13,
            "POSITION": 12,
            "TEXCOORD_0": 14
          },
          "indices": 15,
          "material": 0,
          "mode": 4
        }
      ]
    },
    {
      "name": "Object_4",
      "primitives": [
        {
          "attributes": {
            "NORMAL": 17,
            "POSITION": 16,
            "TEXCOORD_0": 18
          },
          "indices": 19,
          "material": 0,
          "mode": 4
        }
      ]
    },
    {
      "name": "Object_5",
      "primitives": [
        {
          "attributes": {
            "NORMAL": 21,
            "POSITION": 20,
            "TEXCOORD_0": 22
          },
          "indices": 23,
          "material": 0,
          "mode": 4
        }
      ]
    }
  ],
  "nodes": [
    {
      "children": [
        1
      ],
      "matrix": [
        1.0,
        0.0,
        0.0,
        0.0,
        0.0,
        2.220446049250313e-16,
        -1.0,
        0.0,
        0.0,
        1.0,
        2.220446049250313e-16,
        0.0,
        0.0,
        0.0,
        0.0,
        1.0
      ],
      "name": "Sketchfab_model"
    },
    {
      "children": [
        2,
        3,
        4,
        5,
        6,
        7
      ],
      "name": "025531b95ebc4d0880cff8e6bcc6af39.obj.cleaner"
    },
    {
      "mesh": 0,
      "name": "Object_2"
    },
    {
      "mesh": 1,
      "name": "Object_3"
    },
    {
      "mesh": 2,
      "name": "Object_4"
    },
    {
      "mesh": 3,
      "name": "Object_5"
    },
    {
      "mesh": 4,
      "name": "Object_6"
    },
    {
      "mesh": 5,
      "name": "Object_7"
    }
  ],
  "scene": 0,
  "scenes": [
    {
      "name": "Sketchfab_Scene",
      "nodes": [
        0
      ]
    }
  ]
}
